<svg width="24" height="24" viewBox="0 0 24 24" fill="none" xmlns="http://www.w3.org/2000/svg">
<path d="M19.7083 5.14972C20.1044 5.40072 20.4305 5.74784 20.6563 6.15878C20.8822 6.56971 21.0004 7.0311 21 7.5V16.5C21 18.9857 18.9857 21 16.5 21H7.50001C7.0308 21.0003 6.56913 20.8819 6.15792 20.6559C5.74671 20.43 5.39931 20.1037 5.14801 19.7074L5.25258 19.7126L5.35715 19.7143H16.5C17.3525 19.7143 18.1701 19.3756 18.7729 18.7728C19.3756 18.1701 19.7143 17.3525 19.7143 16.5V5.35714C19.7142 5.28796 19.7122 5.21879 19.7083 5.14972ZM7.28572 11.5714C7.0584 11.5714 6.84038 11.6617 6.67963 11.8225C6.51889 11.9832 6.42858 12.2012 6.42858 12.4286C6.42858 12.6559 6.51889 12.8739 6.67963 13.0347C6.84038 13.1954 7.0584 13.2857 7.28572 13.2857C7.51305 13.2857 7.73107 13.1954 7.89182 13.0347C8.05256 12.8739 8.14287 12.6559 8.14287 12.4286C8.14287 12.2012 8.05256 11.9832 7.89182 11.8225C7.73107 11.6617 7.51305 11.5714 7.28572 11.5714Z" fill="black"/>
<path d="M16.0714 2.57143H5.35716C4.61834 2.57143 3.90978 2.86492 3.38736 3.38735C2.86494 3.90977 2.57144 4.61833 2.57144 5.35714V16.0714C2.57144 16.4373 2.6435 16.7995 2.78349 17.1375C2.92349 17.4755 3.12868 17.7826 3.38736 18.0412C3.64604 18.2999 3.95313 18.5051 4.29111 18.6451C4.62909 18.7851 4.99133 18.8571 5.35716 18.8571H16.0714C16.4373 18.8571 16.7995 18.7851 17.1375 18.6451C17.4755 18.5051 17.7826 18.2999 18.0412 18.0412C18.2999 17.7826 18.5051 17.4755 18.6451 17.1375C18.7851 16.7995 18.8572 16.4373 18.8572 16.0714V5.35714C18.8572 4.99132 18.7851 4.62908 18.6451 4.2911C18.5051 3.95312 18.2999 3.64602 18.0412 3.38735C17.7826 3.12867 17.4755 2.92348 17.1375 2.78348C16.7995 2.64348 16.4373 2.57143 16.0714 2.57143ZM5.14287 12.4286C5.14287 11.8603 5.36864 11.3152 5.7705 10.9133C6.17236 10.5115 6.71741 10.2857 7.28573 10.2857C7.85405 10.2857 8.39909 10.5115 8.80096 10.9133C9.20282 11.3152 9.42859 11.8603 9.42859 12.4286C9.42859 12.9969 9.20282 13.5419 8.80096 13.9438C8.39909 14.3457 7.85405 14.5714 7.28573 14.5714C6.71741 14.5714 6.17236 14.3457 5.7705 13.9438C5.36864 13.5419 5.14287 12.9969 5.14287 12.4286ZM11.1429 12.2143C11.1429 12.0438 11.2106 11.8803 11.3312 11.7597C11.4517 11.6392 11.6152 11.5714 11.7857 11.5714H16.0714C16.2419 11.5714 16.4055 11.6392 16.526 11.7597C16.6466 11.8803 16.7143 12.0438 16.7143 12.2143C16.7143 12.3848 16.6466 12.5483 16.526 12.6689C16.4055 12.7894 16.2419 12.8571 16.0714 12.8571H11.7857C11.6152 12.8571 11.4517 12.7894 11.3312 12.6689C11.2106 12.5483 11.1429 12.3848 11.1429 12.2143ZM5.14287 7.92857C5.14287 7.75808 5.2106 7.59456 5.33116 7.47401C5.45172 7.35345 5.61523 7.28572 5.78573 7.28572H16.0714C16.2419 7.28572 16.4055 7.35345 16.526 7.47401C16.6466 7.59456 16.7143 7.75808 16.7143 7.92857C16.7143 8.09907 16.6466 8.26258 16.526 8.38314C16.4055 8.5037 16.2419 8.57143 16.0714 8.57143H5.78573C5.61523 8.57143 5.45172 8.5037 5.33116 8.38314C5.2106 8.26258 5.14287 8.09907 5.14287 7.92857Z" fill="black"/>
</svg>
