<svg width="18" height="18" viewBox="0 0 18 18" fill="none" xmlns="http://www.w3.org/2000/svg">
<path d="M5.42302 14.308C4.95235 14.308 4.54935 14.144 4.21402 13.816C3.87869 13.488 3.71135 13.088 3.71202 12.616V1.691C3.71202 1.21767 3.87935 0.817667 4.21402 0.491C4.54935 0.163667 4.95269 0 5.42402 0H16.308C16.7734 0 17.1717 0.165667 17.503 0.497C17.8344 0.828333 18 1.22667 18 1.692V12.615C18 13.0803 17.8344 13.479 17.503 13.811C17.1717 14.1423 16.7734 14.308 16.308 14.308H5.42302ZM3.71202 18V16.77H4.94202V18H3.71202ZM1.25002 3.23H0.0200195C0.0200195 2.892 0.14002 2.60267 0.38002 2.362C0.62202 2.12067 0.91202 2 1.25002 2V3.23ZM7.40402 18V16.77H8.63402V18H7.40402ZM11.096 18V16.77H12.326V18H11.096ZM1.25002 16.77V18C0.911353 18 0.621353 17.8793 0.38002 17.638C0.14002 17.3973 0.0200195 17.1077 0.0200195 16.769L1.25002 16.77ZM0.0200195 14.308V13.077H1.25002V14.307L0.0200195 14.308ZM0.0200195 10.615V9.385H1.25002V10.615H0.0200195ZM0.0200195 6.923V5.693H1.25002V6.923H0.0200195ZM14.788 16.769H16.019C16.019 17.1077 15.8987 17.3977 15.658 17.639C15.4167 17.8797 15.1267 18 14.788 18V16.769ZM6 3.5H12.615V2.5C12.615 2.308 12.5477 2.14467 12.413 2.01C12.2783 1.87533 12.115 1.808 11.923 1.808H6V3.5Z" fill="white"/>
</svg>
