<svg width="15" height="16" viewBox="0 0 15 16" fill="none" xmlns="http://www.w3.org/2000/svg">
<path d="M8.01364 0C4.66253 0 1.9603 2.62222 1.79142 5.92L0.0847487 8.16889C-0.128585 8.44444 0.0847488 8.88889 0.458082 8.88889H1.79142V11.5556C1.79142 12.5422 2.58253 13.3333 3.56919 13.3333H4.45808V16H10.6803V11.8311C12.787 10.8356 14.2359 8.71111 14.2359 6.22222C14.2359 2.79111 11.4625 0 8.01364 0ZM5.34697 7.11111C4.85808 7.11111 4.45808 6.71111 4.45808 6.22222C4.45808 5.73333 4.85808 5.33333 5.34697 5.33333C5.83586 5.33333 6.23586 5.73333 6.23586 6.22222C6.23586 6.71111 5.83586 7.11111 5.34697 7.11111ZM8.01364 7.11111C7.52475 7.11111 7.12475 6.71111 7.12475 6.22222C7.12475 5.73333 7.52475 5.33333 8.01364 5.33333C8.50253 5.33333 8.90253 5.73333 8.90253 6.22222C8.90253 6.71111 8.50253 7.11111 8.01364 7.11111ZM10.6803 7.11111C10.1914 7.11111 9.79142 6.71111 9.79142 6.22222C9.79142 5.73333 10.1914 5.33333 10.6803 5.33333C11.1692 5.33333 11.5692 5.73333 11.5692 6.22222C11.5692 6.71111 11.1692 7.11111 10.6803 7.11111Z" fill="white"/>
</svg>
