<svg width="24" height="24" viewBox="0 0 24 24" fill="none" xmlns="http://www.w3.org/2000/svg">
<path d="M5.09343 6.15977C5.09343 6.79711 5.61489 7.31857 6.25223 7.31857H15.0475L4.75738 17.6087C4.6501 17.716 4.565 17.8433 4.50694 17.9835C4.44888 18.1237 4.41899 18.2739 4.41899 18.4256C4.41899 18.5774 4.44888 18.7276 4.50694 18.8678C4.565 19.008 4.6501 19.1353 4.75738 19.2426C4.86467 19.3499 4.99203 19.435 5.1322 19.493C5.27238 19.5511 5.42261 19.581 5.57434 19.581C5.72606 19.581 5.87629 19.5511 6.01647 19.493C6.15664 19.435 6.284 19.3499 6.39129 19.2426L16.6814 8.95248V17.7478C16.6814 18.3851 17.2029 18.9066 17.8402 18.9066C18.4775 18.9066 18.999 18.3851 18.999 17.7478V6.15977C18.999 5.52244 18.4775 5.00098 17.8402 5.00098H6.25223C5.61489 5.00098 5.09343 5.52244 5.09343 6.15977Z" fill="#0f3460"/>
</svg>
