<?xml version="1.0" encoding="UTF-8"?>
<svg id="Lager_2" data-name="Lager 2" xmlns="http://www.w3.org/2000/svg" viewBox="0 0 592.21 122.31">
  <defs>
    <style>
      .cls-1 {
        fill: #f9f9f9;
      }
    </style>
  </defs>
  <g id="Lager_1-2" data-name="Lager 1">
    <g id="lw_white" data-name="lw white">
      <g>
        <path class="cls-1" d="m43.78,96.47h-26.72V16.44H0V7.97h26.84v80.03h16.94v8.47Z"/>
        <path class="cls-1" d="m170.48,71.82c-6.11,2.97-9.16,5.58-9.16,7.84,0,1.21.7,2.24,2.1,3.07,1.4.84,3.31,1.25,5.74,1.25l22.02-.63c5.23,0,9.29,1.28,12.2,3.83,2.91,2.55,4.36,6.17,4.36,10.85,0,7.4-3.3,13.3-9.91,17.69-6.61,4.39-14.32,6.58-23.14,6.58-7.23,0-13.15-1.52-17.75-4.55-4.6-3.03-6.9-6.95-6.9-11.76,0-5.23,3.55-9.64,10.66-13.23-5.9-2.76-8.84-6.15-8.84-10.16,0-4.6,3.8-8.88,11.42-12.86-3.51-2.13-6.21-4.89-8.09-8.28-1.88-3.39-2.82-6.96-2.82-10.73,0-6.15,2.09-11.2,6.27-15.15,4.18-3.95,9.41-5.93,15.68-5.93,4.52,0,8.59.94,12.23,2.82l19.38-2.95v9.53h-12.48c1.88,3.3,2.82,7.19,2.82,11.67,0,5.94-2.07,10.96-6.21,15.05-4.14,4.1-9.39,6.15-15.74,6.15-1.34,0-2.61-.04-3.83-.13Zm4.2,42.9c6.44,0,11.93-1.43,16.46-4.3,4.54-2.86,6.8-6.41,6.8-10.63s-3.22-6.52-9.66-6.52c-2.13,0-5.81.13-11.04.38-3.3.17-5.9.25-7.78.25-.92,0-2.35.75-4.3,2.26s-3.43,3.02-4.45,4.55c-1.03,1.53-1.54,3.1-1.54,4.74,0,2.55,1.42,4.74,4.27,6.55,2.84,1.82,6.59,2.73,11.23,2.73Zm-.38-50.37c3.6,0,6.53-1.24,8.81-3.73,2.28-2.49,3.42-5.74,3.42-9.75,0-4.22-1.11-7.53-3.32-9.91-2.22-2.38-5.19-3.58-8.91-3.58-3.47,0-6.39,1.24-8.75,3.73-2.36,2.49-3.54,5.74-3.54,9.75s1.18,7.16,3.54,9.69c2.36,2.53,5.28,3.79,8.75,3.79Z"/>
        <path class="cls-1" d="m279.8,96.47h-9.79v-41.9c0-5.81-.93-10.02-2.79-12.64-1.86-2.61-4.78-3.92-8.75-3.92-5.98,0-12.4,3.72-19.26,11.16v47.29h-9.78V7.97h9.78v32.74c7.02-7.44,14.43-11.16,22.2-11.16,12.25,0,18.38,7.4,18.38,22.2v44.72Z"/>
        <path class="cls-1" d="m357.51,93.52c-6.57,3.01-13.03,4.52-19.38,4.52-11.67,0-17.5-6.17-17.5-18.5v-39.95h-12.54v-8.47h12.54V13.24h9.53v17.88h22.2v8.47h-22.2v37.38c0,3.97.88,7.06,2.63,9.25,1.76,2.2,4.14,3.29,7.15,3.29,5.35,0,10.64-1.19,15.87-3.58l1.69,7.59Z"/>
        <path class="cls-1" d="m441.68,31.11l-9.41,65.36h-7.46l-15.37-37.01-15.43,37.01h-7.46l-9.22-65.36h9.72c3.47,30.52,5.27,46.54,5.39,48.04l11.98-28.41h10.04l11.92,28.22,5.27-47.86h10.04Z"/>
        <path class="cls-1" d="m513,64.1h-44.85c0,7.4,2.14,13.51,6.43,18.31,4.29,4.81,9.54,7.21,15.77,7.21s12.06-1.07,18.38-3.2l1.69,7.84c-5.77,2.59-12.5,3.89-20.2,3.89-9.7,0-17.52-3.11-23.46-9.35-5.94-6.23-8.91-14.63-8.91-25.21s2.67-18.64,8-24.81c5.33-6.17,12.22-9.25,20.67-9.25,7.53,0,13.82,2.86,18.88,8.59,5.06,5.73,7.59,13.36,7.59,22.89v3.07Zm-10.66-7.97c0-5.1-1.59-9.4-4.77-12.89-3.18-3.49-6.73-5.24-10.66-5.24-5.06,0-9.25,1.67-12.58,5.02-3.32,3.35-5.17,7.71-5.55,13.11h33.56Z"/>
        <path class="cls-1" d="m547.56,39.58c2.17-3.01,5.11-5.44,8.81-7.28,3.7-1.84,7.6-2.76,11.7-2.76,7.61,0,13.54,3.05,17.78,9.16,4.24,6.11,6.37,14.13,6.37,24.08s-2.26,18.49-6.77,25.25c-4.52,6.75-10.56,10.13-18.13,10.13-4.06,0-7.85-1.01-11.38-3.04-3.53-2.03-6.33-4.71-8.37-8.06v9.41h-9.78V7.97h9.78v31.61Zm0,9.72v27.16c1.84,3.68,4.33,6.75,7.46,9.22,3.14,2.47,6.38,3.7,9.72,3.7,5.27,0,9.46-2.51,12.58-7.53,3.11-5.02,4.67-11.18,4.67-18.5s-1.48-13.63-4.45-18.31c-2.97-4.68-7.11-7.02-12.42-7.02-6.9,0-12.75,3.76-17.56,11.29Z"/>
      </g>
      <g id="i">
        <path class="cls-1" d="m112.58,96.51h-24.98v-59.4h24.98v59.4Z"/>
        <path class="cls-1" d="m100.48,0c7.37.11,14,6.3,14.13,13.19.14,7.43-6.4,13.43-14.57,13.35-7.89-.07-13.87-5.61-13.94-12.92C86.03,5.98,92.47-.12,100.48,0Z"/>
      </g>
    </g>
  </g>
</svg>