<svg width="24" height="24" viewBox="0 0 24 24" fill="none" xmlns="http://www.w3.org/2000/svg">
<path d="M14.67 10.2857V13.7143C14.67 13.8714 14.22 14 13.67 14H10.34C9.79 14 9.34 13.8714 9.34 13.7143V10.2857C9.34 10.1286 9.79 10 10.34 10H13.67C14.22 10 14.67 10.1286 14.67 10.2857ZM16.67 14H20C20.55 14 21 13.8714 21 13.7143V10.2857C21 10.1286 20.55 10 20 10H16.67C16.12 10 15.67 10.1286 15.67 10.2857V13.7143C15.67 13.8714 16.11 14 16.67 14ZM8.33 13.7143V10.2857C8.33 10.1286 7.88 10 7.33 10H4C3.45 10 3 10.1286 3 10.2857V13.7143C3 13.8714 3.45 14 4 14H7.33C7.89 14 8.33 13.8714 8.33 13.7143Z" fill="#000C24"/>
</svg>
